<svg width="812" height="171" xmlns="http://www.w3.org/2000/svg" xmlns:xlink="http://www.w3.org/1999/xlink" xml:space="preserve" overflow="hidden"><g transform="translate(-234 -273)"><g><g><g><g><path d="M157.657 76.2863 157.657 5.16295 179.838 5.16295 179.838 9.86372C179.838 12.4497 179.878 14.5652 179.926 14.5652 179.974 14.5652 181.374 13.7129 183.037 12.6714 202.654 0.384571 231.172-3.31562 256.748 3.10775 279.791 8.89501 296.496 22.6322 302.435 40.6793 305.905 51.2255 305.714 62.9532 301.905 73.1523 297.167 85.8396 287.427 96.0401 273.379 103.028 261.085 109.143 247.049 112.205 231.312 112.205 218.266 112.205 206.099 110.029 195.389 105.783 191.139 104.097 185.691 101.331 182.387 99.1797L179.838 97.5209 179.838 147.411 157.657 147.411ZM242.041 93.2968C254.518 91.5271 264.198 87.5685 271.456 81.2684 276.95 76.4998 280.775 69.8768 282.225 62.6261 282.818 59.6604 282.819 52.6578 282.228 49.7011 280.522 41.1678 275.632 33.714 268.313 28.4873 265.362 26.3809 259.369 23.3784 255.543 22.0917 244.741 18.458 231.643 17.3819 219.646 19.1426 198.817 22.1991 184.74 32.5298 180.963 47.5274 179.297 54.1448 179.594 61.2888 181.797 67.532 186.798 81.714 201.548 91.1516 222.392 93.5068 226.583 93.9808 238.089 93.8574 242.042 93.2968ZM315.577 76.2863 315.577 5.16295 337.757 5.16295 337.757 9.86372C337.757 12.4497 337.805 14.5652 337.864 14.5652 337.923 14.5652 339.143 13.8009 340.576 12.8675 343.892 10.7056 350.437 7.47245 354.634 5.92377 372.75-0.762905 394.87-1.84178 414.228 3.01836 445.783 10.9405 464.365 32.6449 462.611 59.5302 461.271 80.0524 447.616 96.9097 425.155 105.769 417.828 108.658 410.32 110.481 400.922 111.65 395.962 112.266 382.595 112.266 377.418 111.648 362.763 109.9 349.898 105.548 339.866 98.9469L337.757 97.559 337.757 147.411 315.577 147.411 315.577 76.2863ZM400.497 93.1922C417.777 90.6118 429.953 83.6507 436.352 72.6956 440.069 66.3319 441.46 57.8665 440.082 50.0067 437.217 33.6704 422.859 22.3661 400.878 19.1391 386.369 17.0098 369.989 19.1308 358.854 24.5806 347.486 30.1441 340.645 38.4501 338.31 49.5244 337.697 52.4319 337.699 59.9057 338.313 62.755 339.967 70.4256 343.706 76.7721 349.379 81.5415 357.191 88.1089 367.359 92.0198 380.552 93.5317 384.916 94.0313 396.158 93.8401 400.497 93.1922ZM66.0394 112.058C54.2737 111.019 44.2312 108.701 35.6916 105.054 16.2677 96.7573 3.99953 82.7548 0.670054 65.0811 0.0339531 61.7059-0.208569 54.1011 0.203719 50.4674 2.60815 29.2786 18.2169 12.4954 42.8945 4.56496 56.0267 0.345074 72.1912-1.03384 86.7009 0.828732 113.283 4.24206 133.391 16.5684 142.229 34.8691 149.426 49.7697 148.513 67.8694 139.862 81.7847 135.965 88.0528 129.55 94.5219 122.939 98.8485 112.654 105.58 100.369 109.767 85.4481 111.627 82.4596 112 68.8118 112.303 66.0394 112.058ZM81.7743 93.5297C93.3447 92.3018 103.078 88.998 110.402 83.8149 116.388 79.577 121.127 73.331 123.252 66.8737 124.497 63.0945 124.744 61.32 124.744 56.1549 124.744 51.0052 124.5 49.2451 123.266 45.4632 119.207 33.0315 107.337 23.7838 90.7524 20.1335 76.2108 16.9322 59.2523 18.045 46.6883 23.0237 37.6235 26.6158 30.4691 32.4307 26.2728 39.6149 21.8117 47.2544 20.7987 57.6593 23.6452 66.6263 26.7121 76.2884 34.7908 84.3741 45.908 88.9093 51.9635 91.3795 59.4609 93.1014 66.8834 93.7251 69.7313 93.9641 78.7996 93.8449 81.7743 93.5297ZM539.316 112.067C538.851 112.014 537.224 111.852 535.699 111.708 523.455 110.547 510.583 106.681 501.146 101.328 488.389 94.093 479.503 83.8087 475.446 71.5849 472.701 63.3128 472.233 54.0159 474.129 45.4625 476.998 32.5291 484.87 21.547 497.096 13.4246 513.219 2.71347 536.925-2.04411 559.809 0.839819 578.821 3.23524 594.485 10.1887 605.384 21.0717 613.685 29.3597 618.457 39.0717 619.836 50.4827 620.195 53.4484 620.139 59.4456 619.723 62.5922 616.733 85.2513 598.77 102.57 571.261 109.317 562.921 111.363 557.685 111.982 547.875 112.083 543.631 112.127 539.78 112.119 539.316 112.067ZM553.902 93.6419C568.548 92.2949 580.485 87.468 588.148 79.7953 593.336 74.6005 596.348 68.8818 597.535 61.9699 598.024 59.122 598.017 53.1844 597.521 50.2305 594.851 34.3266 580.828 22.7978 560.05 19.4253 555.061 18.6153 551.743 18.3513 546.548 18.3513 523.252 18.3513 505.177 27.1354 498.225 41.8344 496.153 46.2157 495.197 50.737 495.197 56.1549 495.197 63.3038 496.863 68.974 500.624 74.6233 507.529 84.995 520.623 91.6207 537.954 93.5137 541.529 93.9038 550.292 93.9745 553.902 93.6426Z" fill="#006B33" fill-rule="nonzero" fill-opacity="1" transform="matrix(1.00609 0 0 1 328.577 286.563)"></path></g></g></g></g></g></svg>